# xmcd
#
# Track frame offsets:
#	150
#	14313
#	27533
#	42093
#	55553
#	69199
#	79589
#	91438
#	105126
#	118686
#	131347
#	144624
#	158118
#	172135
#	185308
#	199450
#	213859
#	225911
#
# Disc length: 3214 seconds
#
# Revision: 0
# Processed by: cddbd v1.4PL0 Copyright (c) Steve Scherf et al.
# Submitted via: EasyCDDAExtractor 4.6.9.1
#
DISCID=e30c8c12
DTITLE=John Lee Hooker - No Friend Around
DYEAR=2003
DGENRE=Blues
TTITLE0=Boogie Chillen
TTITLE1=Hoogie Boogie
TTITLE2=Do the Boogie
TTITLE3=Drifting from Door to Door
TTITLE4=Hobo Blues
TTITLE5=See See Baby
TTITLE6=Howlin' Wolf
TTITLE7=Miss Lorraine
TTITLE8=Crawling Kingsnake
TTITLE9=Moon is Rising
TTITLE10=She Was in Chicago
TTITLE11=Never Satisfied
TTITLE12=Talkin' Boogie
TTITLE13=No Friend Around
TTITLE14=Notoriety Woman
TTITLE15=Sally Mae
TTITLE16=How Can I Do It
TTITLE17=Shady Grove Blues
EXTD=
EXTT0=
EXTT1=
EXTT2=
EXTT3=
EXTT4=
EXTT5=
EXTT6=
EXTT7=
EXTT8=
EXTT9=
EXTT10=
EXTT11=
EXTT12=
EXTT13=
EXTT14=
EXTT15=
EXTT16=
EXTT17=
PLAYORDER=
